<?xml version="1.0" encoding="UTF-8"?>
<svg id="Layer_1" data-name="Layer 1" xmlns="http://www.w3.org/2000/svg" xmlns:xlink="http://www.w3.org/1999/xlink" viewBox="0 0 1236.87 357.18">
  <defs>
    <style>
      .cls-1 {
        fill: none;
      }

      .cls-2 {
        clip-path: url(#clippath-1);
      }

      .cls-3 {
        opacity: .76;
      }

      .cls-4 {
        fill: #c90000;
      }

      .cls-5 {
        clip-path: url(#clippath);
      }
    </style>
    <clipPath id="clippath">
      <path class="cls-1" d="M998.03,145.99c-3.9-1.84-7.94-3.48-12.09-4.95-1.56,4.22-3.69,6.28-6.5,6.28-2.46,0-5.52-1.55-9.09-4.61-2.42-2.08-4.86-4.61-7.39-7.68-10.28-1.84-21.18-2.77-32.72-2.77-17.97,0-34.43,2.3-49.39,6.87.53,4.61.32,8.35-.66,11.11-1.73,4.88-9.05,7.92-15.12,8.67l-.56,1.72c1.34,1.26,3.02,2.69,4.96,4.34,4.21,3.57,9.36,7.97,13.09,12.55.98-.51,1.96-1,2.97-1.47,12.99-6.08,27.89-9.13,44.71-9.13s32.37,3.01,45.43,9.02c13.06,6.02,23.24,14.77,30.56,26.25,7.31,11.49,10.97,25.37,10.97,41.64v.41c0,13.41-2.45,25.15-7.33,35.23h.88c1.94-1.57,3.76-3.09,5.51-4.59l-12.65,63.48.36.92c4.26-2.28,8.29-4.75,12.1-7.42l7.55-57.17c6.26,7.75,14.01,15.28,23.59,22.94,8.56-15.39,12.85-33.18,12.85-53.38v-.41c0-22.83-5.47-42.56-16.41-59.17-10.94-16.61-26.15-29.5-45.63-38.66Z"/>
    </clipPath>
    <clipPath id="clippath-1">
      <path class="cls-1" d="M856.79-2v356.93h370.82V-2h-370.82ZM1060.07,244.24c0,20.21-4.29,38-12.85,53.38-9.58-7.65-17.34-15.18-23.59-22.94l-7.55,57.17c-3.81,2.67-7.84,5.15-12.1,7.42l-.36-.92,12.65-63.48c-1.75,1.5-3.57,3.02-5.51,4.58h-.88c4.89-10.07,7.33-21.81,7.33-35.22v-.41c0-16.27-3.66-30.15-10.97-41.64-7.32-11.49-17.5-20.23-30.56-26.25-13.06-6.02-28.2-9.02-45.43-9.02s-31.72,3.04-44.71,9.13c-1.01.47-2,.97-2.97,1.47-3.73-4.58-8.88-8.97-13.09-12.55-1.95-1.65-3.63-3.08-4.96-4.34l.56-1.72c6.07-.75,13.38-3.79,15.12-8.67.98-2.76,1.2-6.5.66-11.11,14.96-4.57,31.42-6.87,49.39-6.87,11.53,0,22.43.93,32.72,2.77,2.53,3.08,4.97,5.61,7.39,7.68,3.57,3.06,6.63,4.61,9.09,4.61,2.81,0,4.94-2.06,6.5-6.28,4.15,1.47,8.19,3.11,12.09,4.95,19.48,9.16,34.69,22.05,45.63,38.66,10.94,16.61,16.41,36.34,16.41,59.17v.41Z"/>
    </clipPath>
  </defs>
  <path d="M0,351.3L148.49,55.34h35.28v42.66h-12.1l-125.52,253.3H0ZM64.2,269.05l16.82-34.46h181.92l16.82,34.46H64.2ZM298.01,351.3l-125.52-253.3v-42.66h23.18l148.49,295.96h-46.15Z"/>
  <path d="M514.6,356.02c-15.59,0-29.67-1.88-42.25-5.64-12.58-3.76-23.55-9.06-32.92-15.9-9.37-6.84-16.99-14.77-22.87-23.79h-1.03v40.61h-42.05V55.34h42.05v122.24h1.03c5.88-9.16,13.54-17.13,22.97-23.89,9.43-6.77,20.51-12.03,33.23-15.79,12.72-3.76,26.8-5.64,42.25-5.64,24.47,0,45.5,4.82,63.07,14.46,17.57,9.64,31.07,22.84,40.51,39.58,9.44,16.75,14.15,35.93,14.15,57.53v.41c0,21.61-4.72,40.85-14.15,57.74-9.43,16.89-22.97,30.12-40.61,39.69-17.64,9.57-38.76,14.36-63.38,14.36ZM503.52,321.15c18.32,0,33.94-3.08,46.87-9.23,12.92-6.15,22.73-14.97,29.43-26.46,6.7-11.49,10.05-25.23,10.05-41.22v-.41c0-15.72-3.35-29.33-10.05-40.82-6.7-11.49-16.51-20.34-29.43-26.56-12.92-6.22-28.54-9.33-46.87-9.33s-33.4,3.18-46.46,9.54c-13.06,6.36-23.25,15.32-30.56,26.87-7.32,11.56-10.97,24.99-10.97,40.3v.41c0,15.45,3.66,28.95,10.97,40.51,7.31,11.56,17.5,20.51,30.56,26.87,13.06,6.36,28.54,9.54,46.46,9.54Z"/>
  <path d="M787.38,356.02c-25.57,0-48.06-4.58-67.48-13.74-19.42-9.16-34.6-22.08-45.53-38.76-10.94-16.68-16.41-36.44-16.41-59.27v-.41c0-22.83,5.47-42.56,16.41-59.17,10.94-16.61,26.12-29.5,45.53-38.66,19.41-9.16,41.84-13.74,67.27-13.74s48.3,4.58,67.79,13.74c19.48,9.16,34.69,22.05,45.63,38.66,10.94,16.61,16.41,36.34,16.41,59.17v.41c0,22.84-5.47,42.59-16.41,59.27-10.94,16.68-26.15,29.6-45.63,38.76s-42.01,13.74-67.58,13.74ZM787.38,321.36c17.23,0,32.34-3.04,45.33-9.13,12.99-6.08,23.14-14.83,30.46-26.25,7.31-11.42,10.97-25.33,10.97-41.74v-.41c0-16.27-3.66-30.15-10.97-41.64-7.32-11.49-17.5-20.23-30.56-26.25-13.06-6.02-28.2-9.02-45.43-9.02s-31.72,3.04-44.71,9.13c-12.99,6.09-23.14,14.84-30.46,26.25-7.32,11.42-10.97,25.26-10.97,41.53v.41c0,16.41,3.66,30.32,10.97,41.74,7.31,11.42,17.46,20.17,30.46,26.25,12.99,6.08,27.96,9.13,44.92,9.13Z"/>
  <g>
    <g class="cls-5">
      <g id="Generative_Object" data-name="Generative Object" class="cls-3">
        <path class="cls-4" d="M1063.37,0c.83,8.94,9.74,41.63,18.76,43.36,3.09.59,5.93-.92,8.73-.64-2.68,7.96-5.13,18.87,1.5,24.34,9.6,7.92,21.5-1.46,31.95-5.93-9.75,18.71-19.87,39.54-25.27,59.3-3.95,14.46-10.72,39.44,13.9,22.59,14.14-9.68,26.92-25.82,39.51-37.38-2.65,23.48,25.28,14.42,40.93,9.5,11.05-3.47,21.58-8.86,32.23-13.52-5.99,7.95-12.48,15.99-17.41,24.5-7.71,13.29-19.28,32.76,2.86,34.83-28.38,16.61-51.95,38.54-9.19,49.08-24.72,11.15-52.01,22-71.06,42.2l33.35,36.71-44.27-1.7,1.88,5.81c-11.76-1.41-23.84-2.64-36.08-1.89-2.09.13-13.38,1.25-14.73,1.74-1.23.44-1.1.56-1.41,1.56-.53,1.68,1.22,12.84,1.25,15.63,0,.6.46,2.92-.69,2.9-17.44-11.8-34.43-24.29-47.16-40.77l-10.15,76.88c-3.45,5.8-9.21,4.66-10.11-.92l15.14-75.97c-18.28,16.23-39.14,28.81-60.52,40.44.38-5.61,5.18-11.83,6.22-17.17.15-.74.22-1.49.35-2.23-16.1-3.81-34.03-2.89-51.4-.82l3.72-5.79-44.76,1.43,44.97-36.47c-12.94-20.03-36.34-31.36-57.6-42.58,9.96-2.97,28.25-7.36,29.69-19.55,1.28-10.83-16.39-23.01-23.29-29.53,5.47-.68,13.88-3.53,15.94-9.33,4.44-12.51-6.8-39.11-12.11-50.04l27.04,13.25c15.16,4.05,38.96,16.29,45.23-8.79,8.58,12.13,17.02,28.73,28.4,38.48,19.09,16.35,19.79-12.8,20.16-25.61.54-19.1-3.45-38.8-6.31-57.16,8.71,4.69,17.03,13.48,29.04,6.56,9.44-5.44,9.91-16.73,9.83-25.19,2.95.31,5.08,1.7,8.45,1.14,9.95-1.64,28.69-34.2,32.51-43.21Z"/>
      </g>
    </g>
    <path d="M930.45,356.02c-25.57,0-48.06-4.58-67.48-13.74-19.42-9.16-34.6-22.08-45.53-38.76-10.94-16.68-16.41-36.44-16.41-59.27v-.41c0-22.83,5.47-42.56,16.41-59.17,10.94-16.61,26.12-29.5,45.53-38.66,19.41-9.16,41.84-13.74,67.27-13.74s48.3,4.58,67.79,13.74c19.48,9.16,34.69,22.05,45.63,38.66,10.94,16.61,16.41,36.34,16.41,59.17v.41c0,22.84-5.47,42.59-16.41,59.27-10.94,16.68-26.15,29.6-45.63,38.76s-42.01,13.74-67.58,13.74ZM930.45,321.36c17.23,0,32.34-3.04,45.33-9.13,12.99-6.08,23.14-14.83,30.46-26.25,7.31-11.42,10.97-25.33,10.97-41.74v-.41c0-16.27-3.66-30.15-10.97-41.64-7.32-11.49-17.5-20.23-30.56-26.25-13.06-6.02-28.2-9.02-45.43-9.02s-31.72,3.04-44.71,9.13c-12.99,6.09-23.14,14.84-30.46,26.25-7.32,11.42-10.97,25.26-10.97,41.53v.41c0,16.41,3.66,30.32,10.97,41.74,7.31,11.42,17.46,20.17,30.46,26.25,12.99,6.08,27.96,9.13,44.92,9.13Z"/>
    <path d="M1202.82,355.2c-26.94,0-47-5.67-60.2-17.02-13.2-11.35-19.79-29.12-19.79-53.33v-115.06h-47.17v-32.82h47.17v-57.02h42.25v57.02h71.79v32.82h-71.79v111.57c0,15.18,3.66,25.81,10.97,31.89,7.31,6.08,19.18,9.13,35.58,9.13,4.24,0,8.72-.24,13.43-.72,4.72-.48,8.65-.99,11.79-1.54v32.2c-4.51.82-9.71,1.5-15.59,2.05-5.88.54-12.03.82-18.46.82Z"/>
    <g class="cls-2">
      <g id="Generative_Object-2" data-name="Generative Object" class="cls-3">
        <path class="cls-4" d="M1063.37,0c.83,8.94,9.74,41.63,18.76,43.36,3.09.59,5.93-.92,8.73-.64-2.68,7.96-5.13,18.87,1.5,24.34,9.6,7.92,21.5-1.46,31.95-5.93-9.75,18.71-19.87,39.54-25.27,59.3-3.95,14.46-10.72,39.44,13.9,22.59,14.14-9.68,26.92-25.82,39.51-37.38-2.65,23.48,25.28,14.42,40.93,9.5,11.05-3.47,21.58-8.86,32.23-13.52-5.99,7.95-12.48,15.99-17.41,24.5-7.71,13.29-19.28,32.76,2.86,34.83-28.38,16.61-51.95,38.54-9.19,49.08-24.72,11.15-52.01,22-71.06,42.2l33.35,36.71-44.27-1.7,1.88,5.81c-11.76-1.41-23.84-2.64-36.08-1.89-2.09.13-13.38,1.25-14.73,1.74-1.23.44-1.1.56-1.41,1.56-.53,1.68,1.22,12.84,1.25,15.63,0,.6.46,2.92-.69,2.9-17.44-11.8-34.43-24.29-47.16-40.77l-10.15,76.88c-3.45,5.8-9.21,4.66-10.11-.92l15.14-75.97c-18.28,16.23-39.14,28.81-60.52,40.44.38-5.61,5.18-11.83,6.22-17.17.15-.74.22-1.49.35-2.23-16.1-3.81-34.03-2.89-51.4-.82l3.72-5.79-44.76,1.43,44.97-36.47c-12.94-20.03-36.34-31.36-57.6-42.58,9.96-2.97,28.25-7.36,29.69-19.55,1.28-10.83-16.39-23.01-23.29-29.53,5.47-.68,13.88-3.53,15.94-9.33,4.44-12.51-6.8-39.11-12.11-50.04l27.04,13.25c15.16,4.05,38.96,16.29,45.23-8.79,8.58,12.13,17.02,28.73,28.4,38.48,19.09,16.35,19.79-12.8,20.16-25.61.54-19.1-3.45-38.8-6.31-57.16,8.71,4.69,17.03,13.48,29.04,6.56,9.44-5.44,9.91-16.73,9.83-25.19,2.95.31,5.08,1.7,8.45,1.14,9.95-1.64,28.69-34.2,32.51-43.21Z"/>
      </g>
    </g>
  </g>
</svg>