<?xml version="1.0" encoding="UTF-8"?>
<svg id="Layer_1" data-name="Layer 1" xmlns="http://www.w3.org/2000/svg" viewBox="0 0 1226.97 466.76">
  <defs>
    <style>
      .cls-1 {
        fill: none;
        stroke: #000;
        stroke-linecap: square;
        stroke-miterlimit: 10;
        stroke-width: 22px;
      }
    </style>
  </defs>
  <path d="M3.2,379.26V46.7h39.41v332.57H3.2ZM23.03,260.11v-36.41h53.01c21.35,0,37.03-5.88,47.02-17.63,9.99-11.75,14.98-29.15,14.98-52.2v-.46c0-23.2-4.99-40.75-14.98-52.66-9.99-11.91-25.66-17.86-47.02-17.86H23.03v-36.18h60.38c20.74,0,38.18,4.34,52.32,13.02,14.13,8.68,24.78,21.05,31.92,37.11,7.14,16.06,10.72,34.84,10.72,56.35v.46c0,21.66-3.57,40.49-10.72,56.46-7.14,15.98-17.79,28.31-31.92,36.99-14.14,8.68-31.57,13.02-52.32,13.02H23.03Z"/>
  <path d="M212.47,379.26v-239.92h38.26v34.8h.69c3.38-14.13,8.72-24.08,16.02-29.85,7.3-5.76,16.25-8.64,26.85-8.64,2.77,0,5.42.15,7.95.46,2.54.31,4.57.69,6.11,1.15v38.72c-1.69-.77-4.15-1.42-7.38-1.96-3.23-.54-6.68-.81-10.37-.81-8.76,0-16.1,2.34-22.01,7.03-5.92,4.69-10.37,11.45-13.37,20.28-3,8.84-4.49,19.55-4.49,32.15v146.58h-38.26Z"/>
  <path d="M401.69,382.95c-17.67,0-32.65-4.65-44.94-13.94-12.29-9.29-21.59-23.12-27.89-41.48-6.3-18.36-9.45-41.06-9.45-68.1v-.46c0-26.89,3.19-49.47,9.56-67.76,6.37-18.28,15.71-32.11,28-41.48,12.29-9.37,27.2-14.06,44.71-14.06s32.88,4.69,45.17,14.06c12.29,9.37,21.58,23.2,27.89,41.48,6.3,18.29,9.45,40.87,9.45,67.76v.46c0,27.04-3.11,49.75-9.33,68.1-6.22,18.36-15.48,32.19-27.77,41.48-12.29,9.3-27.43,13.94-45.4,13.94ZM401.69,348.38c9.53,0,17.55-3.34,24.08-10.03,6.53-6.68,11.41-16.59,14.63-29.73s4.84-29.54,4.84-49.21v-.46c0-19.51-1.61-35.84-4.84-48.97s-8.11-23.05-14.63-29.73c-6.53-6.68-14.56-10.03-24.08-10.03s-17.25,3.34-23.62,10.03c-6.38,6.68-11.26,16.59-14.63,29.73-3.38,13.14-5.07,29.46-5.07,48.97v.46c0,19.67,1.69,36.07,5.07,49.21,3.38,13.14,8.26,23.05,14.63,29.73,6.37,6.68,14.25,10.03,23.62,10.03Z"/>
  <path d="M501.94,460.62c-1.84,0-3.76-.04-5.76-.12-2-.08-3.76-.27-5.3-.58v-34.11c1.08.15,2.04.23,2.88.23h2.65c10.14,0,16.67-2.88,19.59-8.64,2.92-5.76,4.38-13.02,4.38-21.78V139.35h38.26v251.9c0,23.66-4.69,41.14-14.06,52.43-9.37,11.29-23.59,16.94-42.64,16.94ZM539.51,105.47c-6.61,0-12.25-2.42-16.94-7.26-4.69-4.84-7.03-10.64-7.03-17.4s2.34-12.75,7.03-17.52c4.69-4.76,10.33-7.14,16.94-7.14s12.48,2.38,17.17,7.14c4.69,4.76,7.03,10.6,7.03,17.52s-2.34,12.56-7.03,17.4c-4.69,4.84-10.41,7.26-17.17,7.26ZM585.47,55.47c-6.61,0-12.25-2.42-16.94-7.26-4.69-4.84-7.03-10.64-7.03-17.4s2.34-12.75,7.03-17.52c4.69-4.76,10.33-7.14,16.94-7.14s12.48,2.38,17.17,7.14c4.69,4.76,7.03,10.6,7.03,17.52s-2.34,12.56-7.03,17.4c-4.69,4.84-10.41,7.26-17.17,7.26ZM512.11,112.31"/>
  <path d="M674.79,382.95c-17.21,0-31.8-4.72-43.79-14.17s-21.05-23.31-27.2-41.6c-6.15-18.28-9.22-40.79-9.22-67.53v-.23c0-26.73,3-49.28,8.99-67.64,5.99-18.36,14.75-32.3,26.27-41.83,11.52-9.53,25.58-14.29,42.18-14.29s31.15,4.69,42.75,14.06c11.6,9.37,20.4,23.09,26.39,41.14,5.99,18.06,8.99,39.99,8.99,65.8v14.98h-133.67v-30.42h114.77l-19.13,28.12v-20.28c0-17.05-1.65-31.42-4.96-43.1-3.31-11.67-7.88-20.55-13.71-26.62-5.84-6.07-12.75-9.1-20.74-9.1s-14.9,3.04-20.74,9.1c-5.84,6.07-10.37,14.94-13.6,26.62-3.23,11.68-4.84,26.04-4.84,43.1v20.28c0,16.9,1.73,31.23,5.19,42.98s8.33,20.71,14.63,26.85c6.3,6.15,13.52,9.22,21.66,9.22,6.45,0,12.21-1.46,17.29-4.38,5.07-2.92,9.25-7.1,12.56-12.56,3.3-5.45,5.57-11.87,6.8-19.24l1.15-5.99h35.72l-.92,6.45c-1.69,11.06-4.57,20.9-8.64,29.5-4.07,8.61-9.22,15.98-15.44,22.12-6.22,6.15-13.45,10.8-21.66,13.94-8.22,3.15-17.25,4.72-27.08,4.72Z"/>
  <path d="M857.78,382.95c-15.98,0-29.88-4.42-41.71-13.25-11.83-8.83-20.9-22.36-27.2-40.56-6.3-18.21-9.45-41.37-9.45-69.49v-.69c0-26.89,3.03-49.47,9.1-67.76,6.07-18.28,14.94-32.11,26.62-41.48,11.67-9.37,25.81-14.06,42.41-14.06,15.52,0,28.35,3.61,38.49,10.83,10.14,7.22,17.9,16.94,23.28,29.15,5.38,12.21,8.76,25.7,10.14,40.45l.92,8.99h-35.72l-.46-7.84c-1.54-14.44-5.38-25.89-11.52-34.34-6.15-8.45-14.44-12.68-24.89-12.68-8.91,0-16.25,3.38-22.01,10.14-5.76,6.76-10.1,16.75-13.02,29.96-2.92,13.22-4.38,29.42-4.38,48.63v.92c0,19.51,1.46,35.8,4.38,48.86,2.92,13.06,7.3,22.93,13.14,29.62,5.84,6.68,13.21,10.03,22.12,10.03,10.6,0,18.9-4.18,24.89-12.56,5.99-8.37,9.76-19.71,11.29-33.99l.46-8.07h35.72l-.92,9.22c-1.38,14.91-4.84,28.43-10.37,40.56-5.53,12.14-13.33,21.74-23.39,28.81-10.06,7.07-22.7,10.6-37.91,10.6Z"/>
  <path d="M1035.24,382.95c-19.82,0-34.72-4.76-44.71-14.29-9.99-9.52-14.98-24.5-14.98-44.94v-151.88h-26.04v-32.5h26.04v-64.53h39.41v64.53h37.8v32.5h-37.8v149.57c0,10.3,2.19,17.71,6.57,22.24,4.38,4.53,11.1,6.8,20.17,6.8,2.3,0,4.53-.04,6.68-.12,2.15-.08,4.07-.27,5.76-.58v31.57c-2,.46-4.61.84-7.84,1.15-3.23.31-6.91.46-11.06.46Z"/>
  <path d="M1150.25,382.95c-15.37,0-28.54-2.84-39.53-8.53-10.99-5.68-19.51-13.86-25.58-24.54-6.07-10.68-9.18-23.31-9.33-37.91v-6.22h37.11v5.07c.46,12.91,3.88,22.7,10.26,29.38,6.37,6.68,15.63,10.03,27.77,10.03,6.91,0,12.94-1.34,18.09-4.03,5.15-2.69,9.06-6.45,11.75-11.29,2.69-4.84,4.03-10.41,4.03-16.71v-.46c0-9.06-2.54-16.59-7.61-22.59s-13.6-11.52-25.58-16.59l-19.36-7.38c-11.98-4.92-21.86-10.72-29.62-17.4-7.76-6.68-13.6-14.29-17.52-22.82s-5.88-18.09-5.88-28.69v-.46c0-12.75,3.07-24.12,9.22-34.11,6.14-9.99,14.56-17.82,25.24-23.51,10.68-5.68,23.08-8.53,37.22-8.53s26.27,2.77,36.41,8.3,17.94,13.48,23.39,23.85c5.45,10.37,8.41,22.55,8.87,36.53v8.53h-36.18l-.23-6.68c-.31-11.98-3.27-21.28-8.87-27.89-5.61-6.6-13.48-9.91-23.62-9.91-6.76,0-12.52,1.31-17.29,3.92-4.76,2.61-8.45,6.3-11.06,11.06-2.61,4.76-3.92,10.37-3.92,16.82v.46c0,5.99,1.07,11.29,3.23,15.9,2.15,4.61,5.65,8.76,10.49,12.45s11.33,7.14,19.47,10.37l19.13,7.61c18.74,7.68,32.27,16.86,40.56,27.54,8.3,10.68,12.45,24.08,12.45,40.22v.23c0,13.52-3.11,25.39-9.33,35.61-6.22,10.22-14.79,18.17-25.7,23.85-10.91,5.68-23.74,8.53-38.49,8.53Z"/>
  <path class="cls-1" d="M576.59,121.72c27.9,2.29,63.84-32.99,55.8-66.25"/>
</svg>